<svg xmlns="http://www.w3.org/2000/svg" id="Layer_1" version="1.1" viewBox="0 0 600 240"><g><path d="M103.4,110.1c-3.8,0-6.5-.8-8.1-2.4-1.6-1.6-2.3-3.6-2.3-5.9v-3.1c0-2.3.8-4.3,2.3-5.9,1.6-1.6,4.3-2.4,8.1-2.4s6.5.8,8.1,2.4c1.6,1.6,2.3,3.6,2.3,5.9v3.1c0,2.3-.8,4.3-2.3,5.9-1.6,1.6-4.3,2.4-8.1,2.4ZM103.4,154.7c-3.8,0-6.5-.8-8.1-2.4-1.6-1.6-2.3-3.6-2.3-5.9v-3.1c0-2.3.8-4.3,2.3-5.9,1.6-1.6,4.3-2.4,8.1-2.4s6.5.8,8.1,2.4c1.6,1.6,2.3,3.6,2.3,5.9v3.1c0,2.3-.8,4.3-2.3,5.9-1.6,1.6-4.3,2.4-8.1,2.4Z"/><path d="M131.4,170.1l40.4-107.8h11.6l-40.4,107.8h-11.6Z"/></g><g><path d="M235.8,143h21.1v-40.6h-21.1v-10.7h34.2v51.2h19.8v10.7h-54v-10.7ZM263.5,80.5c-3.4,0-5.7-.7-7-2-1.3-1.4-2-3-2-5v-2.5c0-2,.7-3.7,2-5,1.3-1.4,3.6-2,6.9-2s5.7.7,7,2c1.3,1.4,2,3,2,5v2.5c0,2-.7,3.7-2,5-1.3,1.4-3.6,2-6.9,2Z"/><path d="M305.1,143h19.8v-40.6h-21v-10.7h21v-11.2c0-4.6,1.3-8.4,3.8-11.3,2.6-2.9,6.6-4.4,12-4.4h20.9v10.7h-23.6v16.2h23.6v10.7h-23.6v40.6h20.9v10.7h-53.8v-10.7Z"/><path d="M377.1,143h19.8v-40.6h-21v-10.7h21v-11.2c0-4.6,1.3-8.4,3.8-11.3,2.6-2.9,6.6-4.4,12-4.4h20.9v10.7h-23.6v16.2h23.6v10.7h-23.6v40.6h20.9v10.7h-53.8v-10.7Z"/><path d="M493.8,91.8h13.2l-30,73.9c-1.6,4-3.7,7-6.3,9-2.6,2-6.3,3-11.2,3h-10.4v-10.7h14.6l5.6-14.2-25-61.1h13.7l9.8,25.9,7.7,21.2h.7l7.7-21.2,9.8-25.9Z"/></g></svg>